<?xml version="1.0" encoding="UTF-8" standalone="no"?>
<!-- Generator: Adobe Illustrator 19.0.0, SVG Export Plug-In . SVG Version: 6.00 Build 0)  -->
<svg id="Capa_1" xmlns:rdf="http://www.w3.org/1999/02/22-rdf-syntax-ns#" xmlns="http://www.w3.org/2000/svg" xmlns:osb="http://www.openswatchbook.org/uri/2009/osb" xml:space="preserve" viewBox="0 0 48.86864 40" height="40" width="48.869" version="1.1" y="0px" x="0px" xmlns:cc="http://creativecommons.org/ns#" xmlns:dc="http://purl.org/dc/elements/1.1/"><metadata id="metadata51"><rdf:RDF><cc:Work rdf:about=""><dc:format>image/svg+xml</dc:format><dc:type rdf:resource="http://purl.org/dc/dcmitype/StillImage"/><dc:title/></cc:Work></rdf:RDF></metadata><g><g id="g3" transform="matrix(.56779 0 0 .56779 .56779 -3.6532)" stroke="#ecf0f1" stroke-width="2" fill="#ecf0f1"><path class="add-list" id="path5" d="m57.124 51.893h-40.204c-1.657 0-3-1.343-3-3s1.343-3 3-3h40.203c1.657 0 3 1.343 3 3s-1.342 3-2.999 3z"/><path class="add-list" id="path7" d="m57.124 33.062h-40.204c-1.657 0-3-1.343-3-3s1.343-3 3-3h40.203c1.657 0 3 1.343 3 3 0.001 1.657-1.342 3-2.999 3z"/><path class="add-list" id="path9" d="m57.124 14.231h-40.204c-1.657 0-3-1.343-3-3s1.343-3 3-3h40.203c1.657 0 3 1.343 3 3s-1.342 3-2.999 3z"/><circle class="add-list" id="circle11" cy="11.463" cx="4.029" r="4.029"/><circle class="add-list" id="circle13" cy="30.062" cx="4.029" r="4.029"/><circle class="add-list" id="circle15" cy="48.661" cx="4.029" r="4.029"/></g><ellipse class="add-list cut-out" id="path5626" rx="11.067" ry="10.922" stroke="#9e9e9e" cy="28.364" cx="37.088" stroke-width="1.4267" fill="#9e9e9e"/><g id="g5630" transform="matrix(.033315 0 0 .033315 28.895 20.171)" stroke="#ecf0f1" stroke-width="21.034" fill="#ecf0f1"><g id="g5632" stroke="#ecf0f1" stroke-width="21.034" fill="#ecf0f1"><path class="add-list" id="path5634" d="m465.17 211.61h-184.92v-184.92c0-8.424-11.439-26.69-34.316-26.69s-34.316 18.267-34.316 26.69v184.92h-184.92c-8.433 0-26.7 11.44-26.7 34.32 0 22.876 18.267 34.316 26.69 34.316h184.92v184.92c0 8.422 11.438 26.69 34.316 26.69s34.316-18.268 34.316-26.69v-184.92h184.92c8.422 0 26.69-11.438 26.69-34.316s-18.27-34.315-26.693-34.315z" stroke="#ecf0f1" stroke-width="21.034" fill="#ecf0f1"/></g></g></g></svg>
