<?xml version="1.0" encoding="UTF-8" standalone="no"?>
<!-- Generator: Adobe Illustrator 16.0.0, SVG Export Plug-In . SVG Version: 6.00 Build 0)  -->

<svg
   xmlns:dc="http://purl.org/dc/elements/1.1/"
   xmlns:cc="http://creativecommons.org/ns#"
   xmlns:rdf="http://www.w3.org/1999/02/22-rdf-syntax-ns#"
   xmlns:svg="http://www.w3.org/2000/svg"
   xmlns="http://www.w3.org/2000/svg"
   xmlns:sodipodi="http://sodipodi.sourceforge.net/DTD/sodipodi-0.dtd"
   xmlns:inkscape="http://www.inkscape.org/namespaces/inkscape"
   version="1.1"
   id="Capa_1"
   x="0px"
   y="0px"
   width="59"
   height="103.50206"
   viewBox="0 0 58.999999 103.50206"
   xml:space="preserve"
   inkscape:version="0.91 r13725"
   sodipodi:docname="arrow-right-icon.svg"><metadata
     id="metadata41"><rdf:RDF><cc:Work
         rdf:about=""><dc:format>image/svg+xml</dc:format><dc:type
           rdf:resource="http://purl.org/dc/dcmitype/StillImage" /><dc:title></dc:title></cc:Work></rdf:RDF></metadata><defs
     id="defs39" /><sodipodi:namedview
     pagecolor="#ffffff"
     bordercolor="#666666"
     borderopacity="1"
     objecttolerance="10"
     gridtolerance="10"
     guidetolerance="10"
     inkscape:pageopacity="0"
     inkscape:pageshadow="2"
     inkscape:window-width="732"
     inkscape:window-height="480"
     id="namedview37"
     showgrid="false"
     fit-margin-top="0"
     fit-margin-left="0"
     fit-margin-right="0"
     fit-margin-bottom="0"
     inkscape:zoom="0.52230071"
     inkscape:cx="128.7845"
     inkscape:cy="225.92326"
     inkscape:window-x="0"
     inkscape:window-y="0"
     inkscape:window-maximized="0"
     inkscape:current-layer="Capa_1" /><g
     id="g3"
     transform="matrix(0.22906439,0,0,0.22906439,-22.250971,5.7266098e-5)"><path
       d="M 345.441,248.292 151.154,442.573 c -12.359,12.365 -32.397,12.365 -44.75,0 -12.354,-12.354 -12.354,-32.391 0,-44.744 L 278.318,225.92 106.409,54.017 c -12.354,-12.359 -12.354,-32.394 0,-44.748 12.354,-12.359 32.391,-12.359 44.75,0 l 194.287,194.284 c 6.177,6.18 9.262,14.271 9.262,22.366 0,8.099 -3.091,16.196 -9.267,22.373 z"
       id="path5"
       inkscape:connector-curvature="0" /></g><g
     id="g7"
     transform="translate(-97.1385,-348.34469)" /><g
     id="g9"
     transform="translate(-97.1385,-348.34469)" /><g
     id="g11"
     transform="translate(-97.1385,-348.34469)" /><g
     id="g13"
     transform="translate(-97.1385,-348.34469)" /><g
     id="g15"
     transform="translate(-97.1385,-348.34469)" /><g
     id="g17"
     transform="translate(-97.1385,-348.34469)" /><g
     id="g19"
     transform="translate(-97.1385,-348.34469)" /><g
     id="g21"
     transform="translate(-97.1385,-348.34469)" /><g
     id="g23"
     transform="translate(-97.1385,-348.34469)" /><g
     id="g25"
     transform="translate(-97.1385,-348.34469)" /><g
     id="g27"
     transform="translate(-97.1385,-348.34469)" /><g
     id="g29"
     transform="translate(-97.1385,-348.34469)" /><g
     id="g31"
     transform="translate(-97.1385,-348.34469)" /><g
     id="g33"
     transform="translate(-97.1385,-348.34469)" /><g
     id="g35"
     transform="translate(-97.1385,-348.34469)" /></svg>