<?xml version="1.0" encoding="UTF-8" standalone="no"?>
<!-- Generator: Adobe Illustrator 18.1.1, SVG Export Plug-In . SVG Version: 6.00 Build 0)  -->

<svg
   xmlns:dc="http://purl.org/dc/elements/1.1/"
   xmlns:cc="http://creativecommons.org/ns#"
   xmlns:rdf="http://www.w3.org/1999/02/22-rdf-syntax-ns#"
   xmlns:svg="http://www.w3.org/2000/svg"
   xmlns="http://www.w3.org/2000/svg"
   xmlns:sodipodi="http://sodipodi.sourceforge.net/DTD/sodipodi-0.dtd"
   xmlns:inkscape="http://www.inkscape.org/namespaces/inkscape"
   version="1.1"
   id="Capa_1"
   x="0px"
   y="0px"
   viewBox="0 0 29.999999 36.36132"
   xml:space="preserve"
   inkscape:version="0.91 r13725"
   sodipodi:docname="trash-icon.svg"
   width="30"
   height="36.36132"><metadata
     id="metadata43"><rdf:RDF><cc:Work
         rdf:about=""><dc:format>image/svg+xml</dc:format><dc:type
           rdf:resource="http://purl.org/dc/dcmitype/StillImage" /><dc:title></dc:title></cc:Work></rdf:RDF></metadata><defs
     id="defs41" /><sodipodi:namedview
     pagecolor="#ffffff"
     bordercolor="#666666"
     borderopacity="1"
     objecttolerance="10"
     gridtolerance="10"
     guidetolerance="10"
     inkscape:pageopacity="0"
     inkscape:pageshadow="2"
     inkscape:window-width="1920"
     inkscape:window-height="1017"
     id="namedview39"
     showgrid="false"
     fit-margin-top="0"
     fit-margin-left="0"
     fit-margin-right="0"
     fit-margin-bottom="0"
     inkscape:zoom="0.41643653"
     inkscape:cx="-65.180621"
     inkscape:cy="283.35649"
     inkscape:window-x="-8"
     inkscape:window-y="-8"
     inkscape:window-maximized="1"
     inkscape:current-layer="Capa_1" /><g
     id="g3"
     transform="matrix(0.06416179,0,0,0.06416179,-3.1806283,0)"><g
       id="g5"><path
         style="fill:#010002"
         d="m 488.07,164.934 c 3.468,3.468 5.202,7.65 5.202,12.546 l 0,371.485 c 0,4.895 -1.734,9.074 -5.202,12.545 -3.468,3.469 -7.647,5.203 -12.546,5.203 l -384.336,0 c -4.896,0 -9.078,-1.734 -12.546,-5.203 -3.468,-3.471 -5.202,-7.65 -5.202,-12.545 l 0,-371.485 c 0,-4.896 1.734,-9.078 5.202,-12.546 3.468,-3.468 7.65,-5.202 12.546,-5.202 l 384.336,0 c 4.897,0 9.078,1.734 12.546,5.202 z m 23.868,-119.34 c -3.468,-3.468 -7.65,-5.202 -12.546,-5.202 l -146.268,0 0,-22.644 c 0,-4.896 -1.731,-9.078 -5.199,-12.546 C 344.454,1.734 340.478,0 335.988,0 L 230.724,0 c -4.488,0 -8.466,1.734 -11.934,5.202 -3.468,3.468 -5.202,7.65 -5.202,12.546 l 0,22.644 -146.268,0 c -4.896,0 -9.078,1.734 -12.546,5.202 -3.468,3.468 -5.202,7.65 -5.202,12.546 l 0,51.408 c 0,4.896 1.734,9.078 5.202,12.546 3.468,3.468 7.65,5.202 12.546,5.202 l 432.072,0 c 4.896,0 9.078,-1.734 12.546,-5.202 3.468,-3.468 5.202,-7.65 5.202,-12.546 l 0,-51.408 c 0,-4.896 -1.734,-9.078 -5.202,-12.546 z"
         id="path7"
         inkscape:connector-curvature="0" /></g></g><g
     id="g9"
     transform="translate(-49.572,-530.35168)" /><g
     id="g11"
     transform="translate(-49.572,-530.35168)" /><g
     id="g13"
     transform="translate(-49.572,-530.35168)" /><g
     id="g15"
     transform="translate(-49.572,-530.35168)" /><g
     id="g17"
     transform="translate(-49.572,-530.35168)" /><g
     id="g19"
     transform="translate(-49.572,-530.35168)" /><g
     id="g21"
     transform="translate(-49.572,-530.35168)" /><g
     id="g23"
     transform="translate(-49.572,-530.35168)" /><g
     id="g25"
     transform="translate(-49.572,-530.35168)" /><g
     id="g27"
     transform="translate(-49.572,-530.35168)" /><g
     id="g29"
     transform="translate(-49.572,-530.35168)" /><g
     id="g31"
     transform="translate(-49.572,-530.35168)" /><g
     id="g33"
     transform="translate(-49.572,-530.35168)" /><g
     id="g35"
     transform="translate(-49.572,-530.35168)" /><g
     id="g37"
     transform="translate(-49.572,-530.35168)" /></svg>